<svg width="19" height="19" viewBox="0 0 19 19" fill="none" xmlns="http://www.w3.org/2000/svg">
<g id="Image">
<g id="Group">
<g id="Group_2">
<g id="Group_3">
<g id="Group_4">
<g id="Group_5">
<path id="Vector" d="M6.49345 15.0935C7.95492 15.8361 9.76367 15.3069 10.5871 13.8648C10.819 13.4588 10.9548 13.0072 10.9889 12.5448C9.98872 13.0327 8.79791 12.9991 7.82591 12.4407C6.20793 11.5112 5.64577 9.43531 6.5725 7.81244C6.85497 7.31777 7.25804 6.90354 7.73882 6.60871C7.74912 6.04359 7.90141 5.48531 8.18388 4.99064C8.76932 3.96541 9.8123 3.3637 10.9085 3.29359C8.26284 2.6946 5.42116 3.85518 4.00403 6.33682C2.26545 9.38137 3.31991 13.275 6.35408 15.0182C6.40064 15.0449 6.44738 15.0686 6.49464 15.0942L6.49345 15.0935Z" fill="#6D31ED"/>
</g>
<g id="Group_6">
<path id="Vector_2" d="M8.41154 5.12768C8.17967 5.53372 8.04387 5.98536 8.00977 6.44774C9.00996 5.95981 10.1996 5.9927 11.1716 6.55111C12.7895 7.48068 13.3522 9.5584 12.4255 11.1813C12.1437 11.6747 11.7406 12.089 11.2599 12.3838C11.2496 12.9489 11.0973 13.5072 10.8148 14.0019C10.2287 15.0283 9.18569 15.63 8.08948 15.7001C10.7357 16.301 13.578 15.1392 14.9951 12.6576C16.733 9.61423 15.6781 5.71871 12.6439 3.97554C12.5973 3.9488 12.5506 3.92513 12.5033 3.89957C11.0419 3.15694 9.23431 3.68686 8.41154 5.12768Z" fill="#15ABFF"/>
</g>
</g>
</g>
</g>
</g>
</g>
</svg>
